<?xml version="1.0" encoding="utf-8"?>
<!-- Generator: Adobe Illustrator 24.3.0, SVG Export Plug-In . SVG Version: 6.00 Build 0)  -->
<svg version="1.1" id="Layer_3" xmlns="http://www.w3.org/2000/svg" xmlns:xlink="http://www.w3.org/1999/xlink" x="0px" y="0px"
	 viewBox="0 0 100.1 100.1" style="enable-background:new 0 0 100.1 100.1;" xml:space="preserve">
<style type="text/css">
	.st0{display:none;fill:#219EBC;}
	.st1{display:none;fill:#FFFFFF;}
	.st2{fill:#219EBC;}
</style>
<path class="st0" d="M6.3,7.3v21.9H38C27.7,43.1,16.5,66,14,85.6l-0.4,2.8h28.7l0.3-2.2c0.6-4.7,1.7-9.6,3.1-14.6
	c-0.8,0.2-1.7,0.3-2.7,0.3c-6.7,0-11.1-5.4-11.1-13.6c0-8,5-13.6,12-13.6c0.1,0,0.2,0,0.3,0v-3.1v-4h4h4.9H57v4v2
	c3.2-6.1,6.8-12,10.7-17.5l0.5-0.6V7.3H6.3z"/>
<path class="st0" d="M6.3,7.3v21.9H38C27.7,43.1,16.5,66,14,85.6l-0.4,2.8h28.7l0.3-2.2c0.6-4.7,1.7-9.6,3.1-14.6
	c-0.8,0.2-1.7,0.3-2.7,0.3c-6.7,0-11.1-5.4-11.1-13.6c0-8,5-13.6,12-13.6c0.1,0,0.2,0,0.3,0v-3.1v-4h4h4.9H57v4v2
	c3.2-6.1,6.8-12,10.7-17.5l0.5-0.6V7.3H6.3z"/>
<path class="st1" d="M61.2,36.1c-1.5,2.5-2.9,5-4.2,7.5v-2v-4h-3.9h-4.9h-4v4v3.1c-0.1,0-0.2,0-0.3,0c-7,0-12,5.6-12,13.6
	c0,8.2,4.4,13.6,11.1,13.6c1,0,1.9-0.1,2.7-0.3c-0.3,0.9-0.5,1.8-0.7,2.7c1.6,0.4,3.3,0.6,5.1,0.6c11.6,0,21.1-9.4,21.1-21.1
	C71.1,46.4,67.2,39.8,61.2,36.1z"/>
<g>
	<path class="st2" d="M53,41.9v20.7c0,2.2,0,4,0.1,5.1h-4.7c-0.1-0.5-0.1-1.6-0.1-2.2c-0.9,1.6-2.3,2.5-5.1,2.5
		c-4.7,0-7.1-3.8-7.1-9.5c0-5.5,3-9.6,7.9-9.6c2.7,0,3.9,0.9,4.3,1.7v-8.8H53z M40.9,58.4c0,3.4,1.1,5.7,3.8,5.7
		c3.1,0,3.8-2.2,3.8-5.7c0-3.9-0.8-5.5-3.5-5.5C42.4,52.9,40.9,54.8,40.9,58.4z"/>
	<path class="st2" d="M72.1,63c0,1.3,0.1,3.4,0.2,4.8h-4.2c-0.1-0.6-0.2-1.6-0.2-2.2c-0.8,1.5-2.5,2.5-5.1,2.5
		c-4.6,0-6.2-2.9-6.2-5.6c0-3.3,2.3-6.1,8.7-6.1c0.6,0,1.3,0,2.2,0v-1.4c0-1.5-0.5-2.6-2.6-2.6s-2.6,1.1-2.9,2.4h-4.7
		c0.2-2.9,1.9-5.8,7.5-5.8c4.3,0,7.3,1.5,7.3,6.1V63z M67.6,59.4c-0.7,0-1.4,0-2.3,0c-3.3,0-3.9,1.4-3.9,2.5c0,1.3,0.8,2.3,2.6,2.3
		c2.9,0,3.5-1.9,3.5-4.5V59.4z"/>
	<path class="st2" d="M79.7,49.4c2.2,7.8,3.4,12,3.7,14.2l0,0c0.5-2.3,2.2-8.7,3.7-14.2h4.8l-6.3,19.1c-1.9,5.8-4.2,6.5-7.3,6.5
		c-0.3,0-1.3-0.1-1.8-0.1V71c0.5,0.1,1.3,0.1,1.7,0.1c1.5,0,2.3-1,2.7-2.5l-6.4-19.2C74.4,49.4,79.7,49.4,79.7,49.4z"/>
</g>
<path class="st2" d="M31.9,58.3c0-8,5-13.6,12-13.6c0.1,0,0.2,0,0.3,0v-3.1v-4h4h1.4c2.7-5,5.7-9.6,8.6-13.7v-9.6H12.8v10.5h32.4
	C35.6,37.3,23.6,61.6,20.9,81h13c0.6-3.7,1.4-7.6,2.5-11.5C33.5,67.2,31.9,63.3,31.9,58.3z"/>
</svg>
