<?xml version="1.0" encoding="utf-8"?>
<!-- Generator: Adobe Illustrator 24.3.0, SVG Export Plug-In . SVG Version: 6.00 Build 0)  -->
<svg version="1.1" id="Layer_1" xmlns="http://www.w3.org/2000/svg" xmlns:xlink="http://www.w3.org/1999/xlink" x="0px" y="0px"
	 viewBox="0 0 50 50" style="enable-background:new 0 0 50 50;" xml:space="preserve">
<style type="text/css">
	.st0{display:none;}
	.st1{fill:#FFFFFF;}
</style>
<rect class="st0" width="50" height="50"/>
<path class="st1" d="M25,1.9C12.3,1.9,1.9,12.3,1.9,25S12.3,48.1,25,48.1S48.1,37.8,48.1,25S37.8,1.9,25,1.9z M25.1,9.7
	c5.4,0,9.7,4.4,9.7,9.7c0,5.4-4.4,9.7-9.7,9.7c-5.4,0-9.7-4.4-9.7-9.7C15.4,14,19.7,9.7,25.1,9.7z M25.1,45.2
	c-6.6,0-12.6-2.6-16.9-7c1.6-4,4.6-7.2,8.4-9.3c2.1,2.3,5.1,3.7,8.5,3.7c3.3,0,6.4-1.5,8.5-3.7c3.8,2,6.8,5.3,8.4,9.3
	C37.7,42.4,31.7,45.2,25.1,45.2z"/>
<g>
	<path class="st1" d="M25,4.4c11.3,0,20.6,9.2,20.6,20.6S36.4,45.6,25,45.6S4.4,36.4,4.4,25S13.7,4.4,25,4.4 M25,1.9
		C12.3,1.9,1.9,12.3,1.9,25S12.3,48.1,25,48.1S48.1,37.8,48.1,25S37.8,1.9,25,1.9L25,1.9z"/>
</g>
</svg>
