<?xml version="1.0" encoding="utf-8"?>
<!-- Generator: Adobe Illustrator 28.2.0, SVG Export Plug-In . SVG Version: 6.00 Build 0)  -->
<svg version="1.1" xmlns="http://www.w3.org/2000/svg" xmlns:xlink="http://www.w3.org/1999/xlink" x="0px" y="0px"
	 viewBox="0 0 50 50" style="enable-background:new 0 0 50 50;" xml:space="preserve">
<style type="text/css">
	.st0{display:none;}
	.st1{display:inline;}
	.st2{display:none;fill:#FFFFFF;}
	.st3{fill:#FFFFFF;}
</style>
<g id="Layer_4" class="st0">
	<rect class="st1" width="50" height="50"/>
</g>
<g id="Layer_3">
	<path class="st2" d="M14.5,26.4L14.1,9.7c0,0,0.1-5.9,2.4-7.7s14.1-2,16.6,0s2.2,6.9,2.2,6.9v16.8c0,0,1.5,1,2.6,2.6
		s1.1,7,1.1,10.5c0,3.5-1.5,7.2-2.1,7.8c-0.6,0.6-3.1,1.8-5.2,2.2s-11.3,0.4-13.2,0s-2.9-0.3-4.3-1.7c-1.5-1.4-3.3-4.1-3.3-8.7
		S11.3,29,12,27.8C12.8,26.7,14.5,26.4,14.5,26.4z"/>
	<path class="st3" d="M17.6,40V17.1c0,0-1-5.9,7.1-5.9s6.7,4.7,6.7,5.9s0,22.9,0,22.9H17.6z"/>
	<path class="st3" d="M38.2,26.7c0,0,0,12.5,0,14.3c0,1.8,1.9,2.9,1.9,2.9s1.2-4.3,1.2-6.7c0-2.4-1-9.3-2.1-10.4
		C38.2,25.6,38.2,26.7,38.2,26.7z"/>
	<path class="st3" d="M11.3,26.1c0,0,0,12.5,0,14.3s-1.9,2.9-1.9,2.9S8.2,39,8.2,36.5c0-2.4,1-9.3,2.1-10.4
		C11.3,25,11.3,26.1,11.3,26.1z"/>
	<path class="st3" d="M11.7,43.2c-0.5,1.7-1.9,2-1.9,2l1.9,1.9V43.2z"/>
	<path class="st3" d="M38.1,43.2c0.5,1.7,1.9,2,1.9,2l-1.9,1.9V43.2z"/>
	<g>
		<path class="st3" d="M34.1,16.7V40c-0.4,0.5-1.5,1.8-2.9,2.8c-1.8,1.4-11.2,1.4-13.2,0C16,41.4,15,40,15,40V17.3h-1.5V40l-0.1,6.9
			c0,0,0,1.7,4.6,1.7c4.6,0,10.7,0,13.5,0c2.8,0,4-1.4,4-1.4V40V16.7H34.1z"/>
		<path class="st3" d="M24.8,9.5c4.1,0,8.3,2.6,9.1,4.8h1.6C35.5,11.8,35.1,3.6,33,2c-2.5-2-14.3-1.8-16.6,0
			c-2.1,1.7-2.8,11.6-2.9,12.9H15C15.1,12.4,19.4,9.5,24.8,9.5z"/>
	</g>
</g>
</svg>
