<?xml version="1.0" encoding="UTF-8"?>
<svg id="Layer_1" data-name="Layer 1" xmlns="http://www.w3.org/2000/svg" version="1.1" viewBox="0 0 50 50">
  <defs>
    <style>
      .cls-1 {
        fill: #000;
      }

      .cls-1, .cls-2, .cls-3 {
        stroke-width: 0px;
      }

      .cls-2, .cls-3 {
        fill: #fff;
      }

      .cls-2, .cls-4 {
        display: none;
      }
    </style>
  </defs>
  <g id="Layer_4" data-name="Layer 4" class="cls-4">
    <rect class="cls-1" width="50" height="50"/>
  </g>
  <g id="Layer_3" data-name="Layer 3">
    <path class="cls-2" d="M17.3,27.4l-.5-16.7s.1-5.9,2.7-7.7,16.1-2,18.9,0c2.8,2,2.5,6.9,2.5,6.9v16.8s1.7,1,3,2.6,1.3,7,1.3,10.5-1.7,7.2-2.4,7.8-3.5,1.8-5.9,2.2-12.9.4-15,0-3.3-.3-4.9-1.7c-1.7-1.4-3.8-4.1-3.8-8.7s.5-9.4,1.3-10.6c.9-1.1,2.8-1.4,2.8-1.4Z"/>
    <path class="cls-3" d="M12.6,16s1.5-2.1,3.5-2.9,13.1-3.3,16.7-.3v-7.5s.5-3.1-6.2-2.8-12.3,3.2-13.2,5.2"/>
    <path class="cls-3" d="M11.9,21.3c-.5.5-2.7,1.5-2.7,8.3,0,7.6,2.4,15.9,4.4,16.8,0,0,.2,0,.4.1-1-5-2.6-17.9-2.1-25.2Z"/>
    <path class="cls-3" d="M13.9,31.4c.5,6.3,1.3,12.7,1.8,15.4,4.3.5,13,.3,14.8-.4,1.8-.7,2.4-.7,2.4-2.1,0-.4.5-3.6.1-5.4s-.8-2.3-1.3-4.8c-5.4,2.2-18-2.6-18-2.6Z"/>
    <path class="cls-3" d="M32.9,18.6v-1.8c-2.9-5-14.7-1.6-16.7-.7-.8.3-1.8.8-2.3,1.8s-.8,2.7-.4,6.1c4.5.4,17-2.3,19.4-5.3Z"/>
    <path class="cls-3" d="M13.5,25.5c.2,4,.3,2.9.3,4.3,0,0,12.6,5.2,17.6,2.6,0,0-1.1-5.1,1.4-12.2-3,3.4-14.6,5.5-19.4,5.3Z"/>
    <path class="cls-3" d="M35.2,14.5s-.3-2,1.5-1,4.1,4,4.4,7.3-.8,14.1-2.7,15.7-3.7,3-1.6,0c2.1-2.9,2.9-13.1,2.3-15.8s-4-6.3-4-6.3Z"/>
  </g>
  <path class="cls-3" d="M35.3,41.4v3.9c1.3.6,3.9.7,5.5,0v-3.9c-2,1.1-5.5,0-5.5,0Z"/>
</svg>