<?xml version="1.0" encoding="utf-8"?>
<!-- Generator: Adobe Illustrator 24.3.0, SVG Export Plug-In . SVG Version: 6.00 Build 0)  -->
<svg version="1.1" id="Layer_1" xmlns="http://www.w3.org/2000/svg" xmlns:xlink="http://www.w3.org/1999/xlink" x="0px" y="0px"
	 viewBox="0 0 50 50" style="enable-background:new 0 0 50 50;" xml:space="preserve">
<style type="text/css">
	.st0{display:none;}
	.st1{fill:none;stroke:#FFFFFF;stroke-width:4;stroke-miterlimit:10;}
	.st2{display:none;fill:none;stroke:#FFFFFF;stroke-width:4;stroke-miterlimit:10;}
	.st3{fill:none;stroke:#FFFFFF;stroke-width:4;stroke-linecap:round;stroke-miterlimit:10;}
</style>
<rect x="-3.9" y="-4.2" class="st0" width="56.7" height="59.6"/>
<path class="st1" d="M41.7,7.4c3.3,0,6,2.4,6,5.3v29.4c0.1,3-2.6,5.4-5.9,5.4H8.5c-3.3,0-6-2.4-6-5.3V12.7c0-2.9,2.7-5.3,6-5.3"/>
<path class="st2" d="M33.3,7.4h8.4"/>
<path class="st1" d="M17.4,7.4h15.9"/>
<path class="st2" d="M8.5,7.4h7.9"/>
<line class="st1" x1="29.6" y1="23.1" x2="29.6" y2="19.2"/>
<line class="st1" x1="20.6" y1="23.1" x2="20.6" y2="19.2"/>
<line class="st1" x1="38.6" y1="23.1" x2="38.6" y2="19.2"/>
<line class="st1" x1="29.6" y1="31.1" x2="29.6" y2="27.2"/>
<line class="st1" x1="20.6" y1="31.1" x2="20.6" y2="27.2"/>
<line class="st1" x1="11.6" y1="31.1" x2="11.6" y2="27.2"/>
<line class="st1" x1="38.6" y1="31.1" x2="38.6" y2="27.2"/>
<line class="st1" x1="29.6" y1="39.1" x2="29.6" y2="35.2"/>
<line class="st1" x1="20.6" y1="39.1" x2="20.6" y2="35.2"/>
<line class="st1" x1="11.6" y1="39.1" x2="11.6" y2="35.2"/>
<line class="st3" x1="13" y1="10.3" x2="13" y2="3.8"/>
<line class="st3" x1="37.4" y1="10.3" x2="37.4" y2="3.8"/>
</svg>
