<?xml version="1.0" encoding="utf-8"?>
<!-- Generator: Adobe Illustrator 24.3.0, SVG Export Plug-In . SVG Version: 6.00 Build 0)  -->
<svg version="1.1" xmlns="http://www.w3.org/2000/svg" xmlns:xlink="http://www.w3.org/1999/xlink" x="0px" y="0px"
	 viewBox="0 0 50 50" style="enable-background:new 0 0 50 50;" xml:space="preserve">
<style type="text/css">
	.st0{display:none;}
	.st1{display:inline;}
	.st2{fill:#FFFFFF;}
</style>
<g id="Layer_4" class="st0">
	<rect class="st1" width="50" height="50"/>
</g>
<g id="Layer_3">
	<path class="st2" d="M36.1,31.3c-0.3-0.2-0.9-0.5-1.3-0.8c-2.2,2.4-5.4,3.9-8.8,3.9s-6.7-1.5-8.8-3.9c-4,2.1-7.1,5.5-8.8,9.7
		c4.5,4.5,10.7,7.3,17.6,7.3c0.8,0,1.6,0,2.4-0.1C28.4,47.4,39.8,34.1,36.1,31.3z"/>
	<path class="st2" d="M36.1,19.3c0.1,0.4,0.1,0.9,0.1,1.3c0,5.6-4.5,10.1-10.1,10.1s-10.1-4.5-10.1-10.1c0-0.5,0-1,0.1-1.5
		C23.1,18,29.8,17.9,36.1,19.3z"/>
	<path class="st2" d="M35,41.4l3.4-2.5c2-3.2,2.8-5.9,0.9-8.4c-0.8-1-2.5,0-2.5,0C40.5,31.6,38,36.8,35,41.4z"/>
	<path class="st2" d="M42.7,33.1c-0.4-0.5-1-1-1.7-1.2c0.1,0.3,0.1,0.3,0.2,0.9c2.4,2.6-1.3,6.5-5.1,9.3L32.1,45l-3.1,2.3
		c0.7-0.1,1.4-0.2,2.1-0.3l2.5-1.4C33.5,45.6,47.3,38.2,42.7,33.1z"/>
	<g>
		<path class="st2" d="M37.6,11.9c-0.1-1.3-1-9.5-11.6-9.5s-11.8,7.7-12.1,9.6c-0.3,1.9-0.4,3.7-0.4,5.6c7.7-2,17.4-1.4,24.6,0
			C37.9,14.3,38.1,17.3,37.6,11.9z M22.5,10.4c-0.3,0.3-1.4,1.2-1.5,1.4c-0.1,0.2-0.4,0.3-0.7,0.2s-3.4-1.3-3.6-1.4
			s-0.4-0.2-0.4-0.4s0-1.3,0-1.7c0-0.4,0.3-0.6,0.7-0.5c0.4,0.1,5,1.5,5.4,1.5C22.8,9.6,22.7,10.1,22.5,10.4z M36.1,10.2
			c0,0.2-0.2,0.3-0.4,0.4c-0.2,0.1-3.4,1.3-3.6,1.4c-0.3,0.1-0.5,0-0.7-0.2c-0.1-0.2-1.2-1.1-1.5-1.4c-0.2-0.3-0.3-0.8,0.1-0.8
			c0.4-0.1,5-1.4,5.4-1.5c0.4-0.1,0.7,0.2,0.7,0.5C36.1,8.8,36.1,10,36.1,10.2z"/>
	</g>
</g>
</svg>
