<?xml version="1.0" encoding="utf-8"?>
<!-- Generator: Adobe Illustrator 27.0.0, SVG Export Plug-In . SVG Version: 6.00 Build 0)  -->
<svg version="1.1" xmlns="http://www.w3.org/2000/svg" xmlns:xlink="http://www.w3.org/1999/xlink" x="0px" y="0px"
	 viewBox="0 0 50 50" style="enable-background:new 0 0 50 50;" xml:space="preserve">
<style type="text/css">
	.st0{display:none;}
	.st1{display:inline;}
	.st2{fill:#00679B;}
</style>
<g id="Layer_3">
	<g id="layer1" transform="translate(-0.6625,-1.5343664)">
		<g>
			<path class="st2" d="M2.4,39.5c-0.5,1.3-0.9,2.8-1.3,4.2c0.2,0.6,0.8,0.1,1.2,0.1c1.1,0,2.2,0,3.3-0.3
				c5.4-4.5,10.9-8.9,16.3-13.4c-1.7-0.8-3.4-1.7-5.1-2.5C12,31.6,7.2,35.6,2.4,39.5z"/>
		</g>
		<g>
			<path class="st2" d="M50.5,27.6C49.9,20.7,48,13.2,43,8.4c-1.7-1.7-4.2-3.2-6.4-4.4c-0.5-0.3-1.1-0.7-1.7-0.7
				c-0.2,0.3-0.4,1,0.1,1.1c2.2,1.1,3.9,3,5.4,4.9c-0.2,0.4-0.5,0.8-0.8,1.2C39,11.1,38,10.7,37.2,11c-0.9,0.4-1.5,1.2-2.4,1.8
				c-2.8,2.3-5.7,4.7-8.5,7c1.7,0.8,3.4,1.7,5.1,2.5c3-2.5,6-4.9,9-7.4c0.4-0.6,0.1-1.3,0.3-1.9c0-0.5,0.3-0.9,0.7-1.1
				c0.2-0.2,0.8-0.5,0.8,0c0.5,2.2,2.4,3.7,3.4,5.7c2,3.1,3.5,6.5,3.9,10.2C49.7,28.3,50.7,28.3,50.5,27.6z"/>
		</g>
	</g>
	<g>
		<g>
			<path class="st2" d="M20.6,48.3v-5.9c-3.5-0.1-7-1.1-9.1-2.6l1.4-3.9c2.1,1.4,5.2,2.5,8.6,2.5c4.2,0,7.1-2.4,7.1-5.7
				c0-3.2-2.3-5.2-6.7-6.9c-6.1-2.3-9.8-5-9.8-10.1c0-4.8,3.5-8.5,9-9.4V0.6h3.7v5.6c3.6,0.1,6,1,7.8,2L31,12.1
				c-1.3-0.7-3.7-2-7.5-2c-4.6,0-6.3,2.7-6.3,5c0,3,2.2,4.5,7.4,6.6c6.1,2.4,9.2,5.5,9.2,10.6c0,4.6-3.3,8.9-9.4,9.9v6.1H20.6z"/>
		</g>
	</g>
</g>
</svg>
