<?xml version="1.0" encoding="utf-8"?>
<!-- Generator: Adobe Illustrator 24.3.0, SVG Export Plug-In . SVG Version: 6.00 Build 0)  -->
<svg version="1.1" id="Layer_1" xmlns="http://www.w3.org/2000/svg" xmlns:xlink="http://www.w3.org/1999/xlink" x="0px" y="0px"
	 viewBox="0 0 100 100" style="enable-background:new 0 0 100 100;" xml:space="preserve">
<style type="text/css">
	.st0{fill:#FFFFFF;}
</style>
<path class="st0" d="M85,28.9c1.7-3.8,0.4-8.2,0.4-8.2s-0.2-4-7.1-2.7c-3.4-0.2-5.7-0.6-5.7-0.6s-1.7-0.4-4.4-1.1
	c-1.1-1.7,0.2-4,0.2-4s4.8-0.8,0.4-3.4c-1.9-3.2-2.9-3.4-2.9-3.4S61.1,6,56.2,2.4c-3.2,2.1-5.7,0.8-5.7,0.8s-5-0.8-9.5,1.3
	c-4.6-0.2-9.7,2.7-9.7,2.7l-3.2,1.1c0,0,0,0.4,0.6,4c0.8,4.4,0,4.4,0,4.4s-3.4,1.3-7.6-2.5c-2.3,0-3.6,0.8-3.6,0.8s-2.3,2.1-4.6,3.2
	c-0.6,2.3-0.6,6.1-0.6,6.1s2.7,1.3,1.3,5.3c-0.4,1.9-0.2,0.6-0.6,2.7c0.8,2.9,1.5,0,1.7,5.3c0.4,2.1,1.1,0.4,1.5,2.5
	c-0.2,2.5-1.7,6.1,0.6,9c1.1,0.8,0.8,1.3,1.9,2.7c0,12,4.4,16.2,4.4,16.2s0.2,2.7,3.2,3.8c4.2,10.3,5.3,8.4,6.1,9.5
	c0.4,1.9,2.5,6.9,5.5,7.8c0.8,4.2,9.7,8.4,9.7,8.4s2.3,1.7,3.4-0.4c2.5,0.2,5.5-4,5.5-4s3.6-2.1,4.4-5.3c4.2-2.9,5.5-4.8,5.9-6.9
	c4-2.3,2.7-5,2.7-5s0.6-0.6,1.7-5c3.6-2.9,7.6-7.8,7.6-12.2c3.2-3.2,2.7-6.3,2.7-6.3l0.6-2.5c0,0-0.8-6.1,1.5-7.6
	c1.7-2.3,0.8-5.5,0.8-5.5S86.3,32.3,85,28.9z M41.6,42.7c-0.9,0.5-1.5,1.7-2.5,1.7c-0.3,0-0.7-0.1-0.9,0.2c-0.2,0.3,0,0.8-0.3,1.1
	c-0.2,0.2-0.5,0.1-0.7,0.1c-0.2,0-0.6,0-0.6,0.3c0,0.1,0,0.2,0,0.2c-0.1,0.2-0.4,0.2-0.7,0.1c-0.2-0.1-0.5-0.3-0.7-0.2
	c0.5,0.8,1.6,1.1,2.4,1.6c1.2,0.7,2,1.8,2.8,2.9c0.3,0.4,0.5,0.9,0.2,1.2C40.4,52,40.2,52,40,52.1c-0.8,0.1-1.4,0.6-1.7,1.3
	c-0.5,0.1-0.9-0.5-0.9-1c0-0.5,0.2-1,0.3-1.5c0.1-0.5,0.1-1.1,0.1-1.7c0-0.2,0-0.5-0.1-0.7c-0.3-0.8-1.5-0.9-2.1-1.5
	c-0.4-0.4-0.5-1-0.9-1.4c-0.3-0.2-0.7-0.3-0.9-0.7c-0.3-0.5,0.1-1.1,0-1.7c-0.1-0.3-0.3-0.5-0.5-0.7c-0.4-0.4-0.9-0.9-1.3-1.3
	c0.8-0.5,1.9-0.4,2.8,0c0.3,0.2,0.5,0.4,0.8,0.5c0.5,0.2,1.1-0.1,1.6-0.4c0.5-0.3,0.9-0.6,1.3-0.9c0.1-0.1,0.2-0.2,0.3-0.3
	c0.3-0.4,0.2-1,0.3-1.5c0.6,0.5,1.3,1,2.1,0.8c0.1,0,0.2,0,0.3-0.1c0.2-0.2,0-0.5-0.1-0.7c-0.4-0.5-1.3-1-1.5-1.5
	c-0.3-0.8,1,0,1.3,0.2c0.7,0.5,1.2,1.1,1.9,1.5c0.9,0.6,1.9,0.8,2.8,1.3c0.3,0.1,0.5,0.3,0.7,0.5s0.2,0.6,0,0.8
	c-0.1,0.2-0.4,0.3-0.6,0.3C44.4,42.5,42.9,42,41.6,42.7z M65.2,64.5c-0.2-0.1-0.4-0.3-0.6-0.4c-0.6-0.2-1.3,0.3-1.9,0.1
	c-0.3-0.1-0.5-0.2-0.7-0.3c-0.6-0.3-1.2-0.2-1.8-0.2c-0.8,0.1-1.7,0.1-2.4-0.2c-0.6-0.3-1-0.7-1.6-0.9c-0.7-0.2-1.6,0-2.2-0.5
	c-0.2-0.1-0.3-0.3-0.5-0.4c-0.3-0.1-0.6,0-0.9,0.1c-0.7,0.3-1.5,0.4-2.3,0.3c-1.7-0.2-3.2-1.1-4.9-1.1c0.4-1.2,1.5-1.9,2.3-2.9
	c0.6-0.9,0.9-2,1.2-3c0-0.1,0.1-0.3,0-0.4c-0.1-0.2-0.3-0.3-0.5-0.4c-0.5-0.3-0.5-0.9-0.6-1.5c-0.1-0.4-0.2-0.7-0.3-1.1
	c-0.2-0.4-0.4-0.9-0.8-1.1c-0.4-0.2-1-0.1-1.2,0.4c0-0.3-0.1-0.5-0.2-0.8C45,50,45,49.7,45.2,49.5c0.3-0.3,0.9-0.1,1.3-0.2
	c-0.3-0.2-0.6-0.4-0.9-0.5c0.6-0.5,2.6,1.2,3.1,1.6c0.3,0.3,0.7,0.6,1.1,0.6c0.2,0,0.5-0.2,0.7-0.1c0.2,0,0.3,0.2,0.4,0.3
	c0.5,0.6,1.3,1,2.1,1.1c0.2,0,0.4,0.1,0.6,0.1c0.2,0.1,0.4,0.2,0.6,0.4c2.1,1.7,4.1,3.5,6.1,5.4c0.6,0.6,1.3,1.3,1.9,1.9
	c1.7,1.5,3.7,2.7,5.3,4.3c0.2,0.2,0.5,0.5,0.5,0.9C66.9,65.2,65.9,65,65.2,64.5z M80.7,54.4c-0.1,0.4-0.2,0.9-0.4,1.3
	c-1.6-0.4-3.2-0.8-4.8-1.3c-1.1-0.3-2.1-0.6-3.2-0.9c-1.4-0.4-2.7-0.8-4-1.2c-1.2-0.4-2.4-0.7-3.5-1.4c-2.1-1.3-3.6-3.5-5.9-4.1
	c-0.3-0.1-0.7-0.1-1-0.3c-0.3-0.2-0.5-0.5-0.4-0.9c0-0.1,0.1-0.2,0.1-0.3c0-0.2-0.3-0.7-0.5-0.7c-0.3-0.7,0.1-1.1,0.1-1.9
	c0-0.2,0-0.4-0.1-0.6c-0.2-0.4-1-0.5-1.3-0.7c-0.7-0.4-1.5-0.6-2-1.4c0.3-0.7,0.8-1.2,1.5-1.5c0.4-0.2,0.6-0.3,0.9-0.6
	c0.3-0.3,0.6-0.2,0.9-0.1c0.9,0.2,1.6,0.8,2.2,1.4c0.3,0.3,0.8,0.4,1.2,0.6c1.1,0.7,2.6,1.1,3.8,0.9c0.7-0.1,1.9-0.6,2.6-0.3
	c2.6,1.2,5.8,2.9,8.6,5l1.8,0.8l2.6,1.5l1,0.7C80.8,50.5,81.2,52.5,80.7,54.4z M18.2,44.7c0-0.1,0-0.2,0-0.3
	c0.1-0.9,0.3-1.6,0.2-2.5c-0.2-1.8-1.1-3.4-1.7-5.1C16,35,15.4,33,16.3,31.2c0.6-1.1,1.7-2.1,1.8-3.3c0.1-1.4-0.9-2.6-1-3.9
	c-1.2-3.5,3.2-5.5,5.6-4.7c2.7-0.2,5.7,0.3,8-1c0.5-0.3,0.9-0.6,1.2-1.1c0.8-1.4-0.1-3.1,0.1-4.6c0.4-2.4,3.1-3.4,5.4-4
	c5.3-1.4,10.8-2.6,16.3-2.7c5.5,0,10.2,0.2,14.7,3.4c0.5,0.4,1.1,1,1,1.6c-0.3,1-1.8,0.8-2.6,1.4c-1,0.8-0.7,3.6,0.5,4.1
	c3.5,1.8,8.5,2.8,13.4,2.1c1.4-0.2,2.8,0.9,3.5,2.1c0.4,0.7,0.6,1.5,0.7,2.4c0.3,2.4,0.2,4.9,0,7.3c-0.1,1.5-0.2,2.9-0.4,4.4
	c-0.3,2.5-0.9,5-1.9,7.2c-0.4,0.9-1,1.8-1.3,2.8c-0.2,0.6-0.3,1.2-0.3,1.8l-0.9-0.6l-2.6-1.5l-1.8-0.8c-2.7-2.1-5.9-3.8-8.6-5
	c-0.7-0.3-1.9,0.2-2.6,0.3c-1.2,0.2-2.7-0.2-3.8-0.9c-0.4-0.2-0.9-0.4-1.2-0.6c-0.7-0.6-1.4-1.2-2.2-1.4c-0.4-0.1-0.7-0.3-1-0.1
	c-0.1,0-0.1,0-0.2,0c-0.5,0.1-0.8,0.4-1.2,0.7c-1.1,0.9-2.1,1.7-3.2,2.6c-2.2-1.3-4.6-1.7-7.2-1.8c-1.3,0-2.6-0.4-3.6-1.3
	c-0.3-0.2-1.2-0.5-1.5-0.6c-0.3-0.1-2.3-1.3-2.6-1.2c-3,1.1-4.4,4-7.8,4.1c-0.4,0-0.8,0-1.1,0.1c-0.4,0.1-0.7,0.4-1,0.6
	c-1.5,1.2-3.1,2.5-4.6,3.7C20.9,43.7,19.7,44.7,18.2,44.7"/>
</svg>
