<?xml version="1.0" encoding="utf-8"?>
<!-- Generator: Adobe Illustrator 24.3.0, SVG Export Plug-In . SVG Version: 6.00 Build 0)  -->
<svg version="1.1" id="Layer_1" xmlns="http://www.w3.org/2000/svg" xmlns:xlink="http://www.w3.org/1999/xlink" x="0px" y="0px"
	 viewBox="0 0 50 50" style="enable-background:new 0 0 50 50;" xml:space="preserve">
<style type="text/css">
	.st0{display:none;}
	.st1{fill:none;stroke:#FFFFFF;stroke-width:4;stroke-miterlimit:10;}
	.st2{display:none;fill:#FFFFFF;}
	.st3{display:none;fill:none;stroke:#FFFFFF;stroke-width:2;stroke-miterlimit:10;}
	.st4{display:none;fill:none;stroke:#FFFFFF;stroke-miterlimit:10;}
	.st5{fill:none;stroke:#FFFFFF;stroke-width:3;stroke-miterlimit:10;}
</style>
<rect x="-3.9" y="-4.2" class="st0" width="56.7" height="59.6"/>
<path class="st1" d="M41.8,47.5H8.5c-3.3,0-6-2.7-6-6V8.2c0-3.3,2.7-6,6-6h33.2c3.3,0,6,2.7,6,6v33.2C47.8,44.8,45.1,47.5,41.8,47.5
	z"/>
<line class="st1" x1="11.6" y1="27.1" x2="11.6" y2="19.4"/>
<line class="st1" x1="38.6" y1="27.1" x2="38.6" y2="7.4"/>
<line class="st1" x1="29.6" y1="27.1" x2="29.6" y2="15.4"/>
<path class="st2" d="M14.4,17.8h8.2c0-4.5-3.7-8.2-8.2-8.2c-4.5,0-8.2,3.7-8.2,8.2c0,4.5,3.7,8.2,8.2,8.2V17.8z"/>
<path class="st2" d="M17.4,20.8V29c4.5,0,8.2-3.7,8.2-8.2H17.4z"/>
<line class="st3" x1="7" y1="33.5" x2="35.4" y2="33.5"/>
<line class="st4" x1="7" y1="36.8" x2="15.4" y2="36.8"/>
<line class="st4" x1="7" y1="38.8" x2="25.4" y2="38.8"/>
<line class="st1" x1="20.4" y1="27.1" x2="20.4" y2="12.4"/>
<polyline class="st5" points="8.6,41.4 16.9,34.9 28.4,40.4 43.2,31.5 "/>
<path class="st1" d="M40.6,18.4"/>
<path class="st1" d="M40.6,27.1"/>
</svg>
