<?xml version="1.0" encoding="utf-8"?>
<!-- Generator: Adobe Illustrator 27.0.0, SVG Export Plug-In . SVG Version: 6.00 Build 0)  -->
<svg version="1.1" id="Layer_1" xmlns="http://www.w3.org/2000/svg" xmlns:xlink="http://www.w3.org/1999/xlink" x="0px" y="0px"
	 viewBox="0 0 100.1 100.1" style="enable-background:new 0 0 100.1 100.1;" xml:space="preserve">
<style type="text/css">
	.st0{fill:#00679B;}
	.st1{fill:#00679B;stroke:#00679B;stroke-width:2;stroke-miterlimit:10;}
</style>
<g>
	<g>
		<path class="st0" d="M49.8,7.7c0.4,0,0.7,0,0.9,0c0.9,0.3,2.2,0.5,3.7,0.5c1.1,0,2.2-0.1,3.3-0.4c2.2,1.1,4.3,1.7,6,2
			c-0.7,2.5-0.6,5.6,1,8.3l1.5,2.6l3,0.7c2.8,0.6,4.5,1,4.5,1l0.2,0l0.2,0c0.3,0.1,2.9,0.5,6.8,0.7l0.9,0.1l0.5-0.1
			c0,0.6-0.1,1.2-0.3,1.7l-1.2,2.6l1,2.7c0.1,0.5-0.1,1.9-0.5,2.8l-1,2.2l0.7,2.3c-2.8,3.4-2.9,8.3-2.7,11.4L78,50.4l-0.3,1.2
			l0.1,0.8c0,0.2-0.2,0.7-0.8,1.2l-2.1,2.1v2.9c0,1.3-1.9,4.6-5.3,7.4l-1.8,1.5l-0.6,2.3c-0.4,1.5-0.6,2.4-0.8,2.9l-2.6,2.6l0.7,1.5
			l-1.2,0.7l-0.7,2.9c-0.2,0.8-2.2,2.3-3.4,3.1L57.1,85l-0.6,2.4c-0.2,0.3-0.9,1-1.4,1.3l-1.2,0.7l-0.9,1.4
			c-0.3,0.4-0.6,0.8-0.9,1.1l-2-0.2c-1.7-1.1-3.3-2.2-3.8-3l-0.7-3.6l-3.4-1c-0.6-0.7-1.4-2.3-1.5-3.2L40,79.1l-1.3-1.4
			c-0.8-0.9-1.6-1.4-2.3-1.8c-0.4-0.7-1.3-2.3-2.9-6.1L32.5,67L31,66.5l0.1-1.1l-2.3-1.8c-0.5-0.7-2.6-4.2-2.6-12v-2.4l-1.5-1.9
			c-0.1-0.1-0.1-0.2-0.3-0.4c-0.3-0.5-0.7-1.4-1.6-2.3c0-0.5,0.2-1.4,0.3-2c0.1-0.8,0.3-1.7,0.4-2.7l0.1-1.1l-0.3-1.1
			c-0.3-1.4-0.8-2.5-1.5-3.5c-0.1-1.4-0.4-2.9-1.2-4.3c1.1-3.6,0.5-6.8-0.9-9.3c0.2-0.2,0.5-0.3,0.7-0.5c2.9,1.7,5.6,2.1,7.5,2.1
			c1.6,0,2.8-0.3,3.5-0.5c1.4-0.4,2.6-1.2,3.5-2.3c2.1-2.5,2.1-5.7,1.6-8.7c1.3-0.6,3.4-1.4,5.1-1.4c0.1,0,0.1,0,0.2,0l1.7,0.1
			l1.6-0.8C46.5,8,48.1,7.7,49.8,7.7 M58.3,0c-1.5,1-2.8,1.3-3.9,1.3c-1.3,0-2.1-0.4-2.1-0.4s-1-0.2-2.5-0.2c-2,0-4.8,0.3-7.4,1.5
			c-0.2,0-0.3,0-0.5,0c-4.7,0-9.6,2.9-9.6,2.9L29,6.1c0,0,0,0.4,0.6,4.2c0.8,4.6,0,4.6,0,4.6s-0.6,0.2-1.6,0.2
			c-1.4,0-3.7-0.5-6.3-2.9c-2.4,0-3.8,0.8-3.8,0.8s-2.4,2.2-4.8,3.3c-0.6,2.4-0.6,6.4-0.6,6.4s2.8,1.4,1.4,5.5
			c-0.4,2-0.2,0.6-0.6,2.8c0.8,3.1,1.6,0,1.8,5.5c0.4,2.2,1.1,0.4,1.6,2.6c-0.2,2.6-1.8,6.4,0.6,9.5c1.1,0.8,0.8,1.4,2,2.8
			c0,12.5,4.6,16.9,4.6,16.9s0.2,2.8,3.3,4c4.4,10.8,5.5,8.8,6.4,9.9c0.4,2,2.6,7.3,5.7,8.2c0.8,4.4,10.1,8.8,10.1,8.8
			s0.9,0.7,1.9,0.7c0.6,0,1.2-0.3,1.7-1.1c0.1,0,0.1,0,0.2,0c2.6,0,5.5-4.2,5.5-4.2s3.8-2.2,4.6-5.5c4.4-3.1,5.7-5,6.2-7.3
			c4.2-2.4,2.8-5.3,2.8-5.3s0.6-0.6,1.8-5.3c3.8-3.1,7.9-8.2,7.9-12.8c3.3-3.3,2.8-6.6,2.8-6.6l0.6-2.6c0,0-0.8-6.4,1.6-7.9
			c1.8-2.4,0.8-5.7,0.8-5.7s2-4.5,0.6-8.1c1.8-4,0.4-8.6,0.4-8.6S88.7,16,84.1,16c-0.8,0-1.6,0.1-2.6,0.3c-3.6-0.2-6-0.6-6-0.6
			s-1.8-0.4-4.6-1.1c-1.1-1.8,0.2-4.2,0.2-4.2s5-0.8,0.4-3.6c-2-3.3-3.1-3.6-3.1-3.6s-0.2,0-0.5,0C66.5,3.3,62.4,3,58.3,0L58.3,0z"
			/>
	</g>
</g>
<path class="st1" d="M53.2,77.3v-7.8c7.9-1.3,12.2-6.9,12.2-12.8c0-6.7-4.1-10.7-12-13.8c-6.7-2.7-9.5-4.7-9.5-8.6
	c0-3,2.2-6.5,8.2-6.5c5,0,8.1,1.6,9.7,2.5l1.9-5c-2.2-1.3-5.4-2.5-10.1-2.6v-7.3h-4.8v7.6c-7.1,1.2-11.7,5.9-11.7,12.2
	c0,6.5,4.9,9.9,12.8,13c5.7,2.2,8.7,4.8,8.7,8.9c0,4.4-3.8,7.4-9.2,7.4c-4.4,0-8.4-1.4-11.2-3.2l-1.8,5.1c2.6,1.9,7.3,3.2,11.8,3.4
	v7.6H53.2z"/>
</svg>
