<?xml version="1.0" encoding="utf-8"?>
<!-- Generator: Adobe Illustrator 27.0.0, SVG Export Plug-In . SVG Version: 6.00 Build 0)  -->
<svg version="1.1" id="Layer_1" xmlns="http://www.w3.org/2000/svg" xmlns:xlink="http://www.w3.org/1999/xlink" x="0px" y="0px"
	 viewBox="0 0 100.1 100.1" style="enable-background:new 0 0 100.1 100.1;" xml:space="preserve">
<style type="text/css">
	.st0{fill:#00679B;}
</style>
<path class="st0" d="M50.2,11.8c21.2,0,38.3,17.2,38.3,38.3S71.3,88.5,50.2,88.5S11.8,71.3,11.8,50.2S29,11.8,50.2,11.8 M50.2,1.3
	c-27,0-48.9,21.9-48.9,48.9s21.9,48.9,48.9,48.9s48.9-21.9,48.9-48.9S77.2,1.3,50.2,1.3L50.2,1.3z"/>
<polygon class="st0" points="26.9,82.3 44,45.7 56.4,54.7 "/>
<path class="st0" d="M63.3,32.1l-8.2,17.6l-5.9-4.4L63.3,32.1 M73.5,18.1L44,45.7l12.6,9.1L73.5,18.1L73.5,18.1z"/>
</svg>
