<?xml version="1.0" encoding="utf-8"?>
<!-- Generator: Adobe Illustrator 24.3.0, SVG Export Plug-In . SVG Version: 6.00 Build 0)  -->
<svg version="1.1" id="Layer_1" xmlns="http://www.w3.org/2000/svg" xmlns:xlink="http://www.w3.org/1999/xlink" x="0px" y="0px"
	 viewBox="0 0 100.1 100.1" style="enable-background:new 0 0 100.1 100.1;" xml:space="preserve">
<style type="text/css">
	.st0{fill:#219EBC;}
	.st1{display:none;}
	.st2{display:inline;fill:#219EBC;}
	.st3{display:inline;}
	.st4{fill:#FFFFFF;}
</style>
<g>
	<path class="st0" d="M50.8,22.8c16,0,29,13,29,29s-13,29-29,29s-29-13-29-29S34.8,22.8,50.8,22.8 M50.8,14.8c-20.4,0-37,16.6-37,37
		s16.6,37,37,37s37-16.6,37-37S71.2,14.8,50.8,14.8L50.8,14.8z"/>
</g>
<polygon class="st0" points="33.2,76.1 46.1,48.4 55.5,55.2 "/>
<g>
	<path class="st0" d="M60.7,38.1l-6.2,13.3L50,48.1L60.7,38.1 M68.4,27.5L46.1,48.4l9.5,6.9L68.4,27.5L68.4,27.5z"/>
</g>
<g id="Layer_2" class="st1">
	<path class="st2" d="M89,58L71.9,19.1c-0.6-1.4,0-3,1.4-3.6l2.5-1.1c1.4-0.6,3,0,3.6,1.4l17.2,38.9c0.6,1.4,0,3-1.4,3.6l-2.5,1.1
		C91.2,60,89.6,59.3,89,58z"/>
	<path class="st2" d="M70.3,26.1L41.2,38.9C36,36.2,31.1,34.1,29.1,35c-4.9,2.2,14.3,46,19.4,43.8c1.7-0.8,3.5-5.7,5-11.4l29.4-13
		L70.3,26.1z"/>
	<path class="st2" d="M3.7,72.4c0.9,2.1,10.9-2.1,30.8-7.4c-1.8-3-3.7-7.8-4.5-10.2C22.6,59.2,2.8,70.3,3.7,72.4z"/>
	<g class="st3">
		<path class="st4" d="M39.1,50.6l5-2.2c2.3-1,4.3-0.5,5.1,1.4c0.9,2,0,3.8-2.4,4.9l-2.6,1.2l1.5,3.5l-2.4,1L39.1,50.6z M43.4,53.9
			l2.4-1.1c1-0.4,1.5-1.1,1.1-2c-0.3-0.8-1-1.1-2.2-0.6l-2.4,1.1L43.4,53.9z"/>
		<path class="st4" d="M54.5,50.9l1.7,3.7l-2.3,1L49.6,46l5.3-2.3c2.2-1,4-0.5,4.8,1.2c0.6,1.3,0.2,2.3-0.7,3c0.5,0,1.7-0.1,2.5,1.6
			l0.2,0.5c0.3,0.7,0.6,1.4,1,1.8l-2.4,1.1c-0.4-0.4-0.6-0.9-1.1-2l-0.1-0.3c-0.4-1-1-1.2-2.4-0.6L54.5,50.9z M53.8,49.1l2.4-1.1
			c1.1-0.5,1.5-1.1,1.1-2c-0.3-0.8-1-1-2.2-0.5l-2.5,1.1L53.8,49.1z"/>
		<path class="st4" d="M72.4,41.7c1.2,2.7,0.5,5.9-3.1,7.5c-3.3,1.5-6.2,0-7.4-2.8c-1.2-2.7-0.2-5.9,3.1-7.4
			C68.4,37.4,71.2,39,72.4,41.7z M64.4,45.2c0.8,1.8,2.4,2.9,4.3,2c2-0.9,2-2.8,1.3-4.4c-0.8-1.7-2.3-2.8-4.2-2
			C63.8,41.6,63.7,43.5,64.4,45.2z"/>
	</g>
</g>
</svg>
