<?xml version="1.0" encoding="utf-8"?>
<!-- Generator: Adobe Illustrator 24.3.0, SVG Export Plug-In . SVG Version: 6.00 Build 0)  -->
<svg version="1.1" id="Layer_1" xmlns="http://www.w3.org/2000/svg" xmlns:xlink="http://www.w3.org/1999/xlink" x="0px" y="0px"
	 viewBox="0 0 100.1 100.1" style="enable-background:new 0 0 100.1 100.1;" xml:space="preserve">
<style type="text/css">
	.st0{fill:#00679B;}
</style>
<path class="st0" d="M50.8,22.8c16,0,29,13,29,29s-13,29-29,29s-29-13-29-29S34.8,22.8,50.8,22.8 M50.8,14.8c-20.4,0-37,16.6-37,37
	s16.6,37,37,37s37-16.6,37-37S71.2,14.8,50.8,14.8L50.8,14.8z"/>
<polygon class="st0" points="33.2,76.1 46.1,48.4 55.5,55.2 "/>
<path class="st0" d="M60.7,38.1l-6.2,13.3L50,48.1L60.7,38.1 M68.4,27.5L46.1,48.4l9.5,6.9L68.4,27.5L68.4,27.5z"/>
</svg>
