<?xml version="1.0" encoding="utf-8"?>
<!-- Generator: Adobe Illustrator 27.0.0, SVG Export Plug-In . SVG Version: 6.00 Build 0)  -->
<svg version="1.1" id="Layer_1" xmlns="http://www.w3.org/2000/svg" xmlns:xlink="http://www.w3.org/1999/xlink" x="0px" y="0px"
	 viewBox="0 0 100.1 100.1" style="enable-background:new 0 0 100.1 100.1;" xml:space="preserve">
<style type="text/css">
	.st0{fill:#00679B;}
</style>
<path class="st0" d="M89.7,43.6l-37-34.5c-1.2-1.2-1.4-3.2-0.1-4.5l2.2-2.3C56,1,58,0.8,59.4,2.1l37,34.5c1.2,1.2,1.4,3.2,0.1,4.5
	l-2.2,2.3C93,44.7,91,44.7,89.7,43.6z"/>
<path class="st0" d="M3.1,99.2C5,101,14,91.8,33.3,76.6c-3.3-2.5-7.7-6.8-9.7-9.1C17.5,75.9,1.2,97.4,3.1,99.2z"/>
<g>
	<path class="st0" d="M37.7,55.9l-2.2,2.3l2.4,2.2l2.2-2.3c0.8-0.9,1.1-1.8,0.3-2.7C39.6,54.7,38.7,54.9,37.7,55.9z"/>
	<path class="st0" d="M46.7,45.8l-2.2,2.3l2.4,2.2L49,48c1.1-1.1,1.1-1.9,0.3-2.7C48.6,44.7,47.6,44.7,46.7,45.8z"/>
	<path class="st0" d="M81.2,42.6l-27-25.2L28.4,45.1c-6.9-0.6-13.3-0.5-15.1,1.3c-4.4,4.8,37.1,43.8,41.7,39
		c1.6-1.6,1.2-7.9,0.1-14.9L81.2,42.6z M54.4,33.9c3.1-3.1,7-2.8,9.4-0.5c2.6,2.4,3.3,6.2,0.1,9.6c-3,3.1-6.7,2.9-9.4,0.4
		C52,41.1,51.6,37,54.4,33.9z M42.9,65.1l-2.1,2.3l-9.1-8.7l4.4-4.8c2-2.2,4.5-2.6,6.2-0.9c1.9,1.8,1.7,4.2-0.4,6.4l-2.3,2.6
		L42.9,65.1z M53.6,49.8l-0.3-0.3c-0.9-0.8-1.7-0.9-2.9,0.5l-1.7,1.9l3.5,3.4l-2.1,2.2l-9.3-8.7l4.8-5c2-2.2,4.1-2.3,5.8-0.9
		c1.2,1.2,1.3,2.5,0.7,3.6c0.5-0.2,1.8-0.9,3.4,0.6l0.4,0.4c0.7,0.6,1.4,1.3,1.9,1.6l-2.1,2.3C55.2,51.3,54.5,50.8,53.6,49.8z"/>
	<path class="st0" d="M62.4,41.3c1.7-1.9,0.8-4.1-0.7-5.4c-1.6-1.5-3.9-2-5.5-0.1c-1.7,1.8-1.1,3.9,0.6,5.3
		C58.5,42.6,60.7,43.1,62.4,41.3z"/>
</g>
</svg>
