<?xml version="1.0" encoding="utf-8"?>
<!-- Generator: Adobe Illustrator 24.3.0, SVG Export Plug-In . SVG Version: 6.00 Build 0)  -->
<svg version="1.1" id="Layer_1" xmlns="http://www.w3.org/2000/svg" xmlns:xlink="http://www.w3.org/1999/xlink" x="0px" y="0px"
	 viewBox="0 0 100.1 100.1" style="enable-background:new 0 0 100.1 100.1;" xml:space="preserve">
<style type="text/css">
	.st0{fill:#219EBC;}
	.st1{fill:#FFFFFF;}
	.st2{display:none;}
	.st3{display:inline;fill:#FFFFFF;}
	.st4{display:none;fill:#219EBC;}
</style>
<path class="st0" d="M86.7,48.5L59.5,15.8c-0.9-1.1-0.8-2.8,0.4-3.8l2.1-1.7c1.1-0.9,2.8-0.8,3.8,0.4l27.2,32.7
	c0.9,1.1,0.8,2.8-0.4,3.8l-2.1,1.7C89.3,49.8,87.6,49.6,86.7,48.5z"/>
<path class="st0" d="M59.9,22.9L35.4,43.3c-5.7-1.2-11-1.8-12.7-0.5c-4.2,3.5,26.3,40.4,30.6,36.9c1.5-1.2,1.8-6.5,1.7-12.4
	l24.7-20.5L59.9,22.9z"/>
<path class="st0" d="M8.6,85.7c1.4,1.7,9.9-5,27.6-15.6c-2.5-2.4-5.7-6.5-7.1-8.6C23.1,67.8,7.2,84,8.6,85.7z"/>
<g>
	<path class="st1" d="M36.7,55l4.2-3.5c1.9-1.6,4-1.7,5.3-0.1c1.4,1.7,1,3.7-1,5.3L43,58.6l2.4,2.9l-2,1.7L36.7,55z M41.7,57.1
		l2.1-1.7c0.8-0.7,1.1-1.4,0.5-2.2c-0.6-0.7-1.3-0.7-2.3,0.1l-2.1,1.7L41.7,57.1z"/>
	<path class="st1" d="M51.6,51.1l2.6,3.2l-2,1.6l-6.8-8.2l4.5-3.7c1.9-1.6,3.7-1.5,4.9-0.1c0.9,1.1,0.8,2.2,0.2,3.1
		c0.4-0.1,1.6-0.6,2.8,0.9l0.3,0.4c0.5,0.6,1,1.2,1.4,1.5l-2,1.7c-0.4-0.2-0.9-0.7-1.6-1.6l-0.2-0.3c-0.7-0.8-1.3-0.9-2.5,0.1
		L51.6,51.1z M50.3,49.6l2-1.7c1-0.8,1.1-1.5,0.5-2.2c-0.5-0.6-1.3-0.7-2.2,0.1l-2.1,1.7L50.3,49.6z"/>
	<path class="st1" d="M66.2,37.3c1.9,2.3,2.1,5.5-0.9,8c-2.8,2.3-5.9,1.7-7.9-0.7c-1.9-2.2-1.8-5.6,0.9-7.9
		C61.2,34.4,64.4,35.1,66.2,37.3z M59.5,42.9c1.3,1.5,3.1,2.1,4.7,0.8c1.6-1.4,1.1-3.3,0-4.6c-1.2-1.4-3-2.1-4.6-0.7
		C58,39.7,58.3,41.5,59.5,42.9z"/>
</g>
<g>
	<g class="st2">
		<path class="st3" d="M42.6,48.4l4.7-2.1c2.1-0.9,4-0.5,4.8,1.3c0.8,1.9,0,3.6-2.3,4.6l-2.5,1.1l1.4,3.3l-2.2,1L42.6,48.4z
			 M46.7,51.5l2.3-1c0.9-0.4,1.4-1,1-1.9c-0.3-0.7-1-1-2.1-0.5l-2.3,1L46.7,51.5z"/>
		<path class="st3" d="M57.2,48.7l1.6,3.5l-2.2,1l-4-9.1l5-2.2c2.1-0.9,3.8-0.4,4.5,1.1c0.5,1.2,0.1,2.2-0.6,2.9
			c0.4,0,1.6-0.1,2.3,1.5l0.2,0.5c0.3,0.6,0.6,1.3,0.9,1.7l-2.3,1c-0.3-0.3-0.6-0.9-1-1.8l-0.1-0.3c-0.4-0.9-0.9-1.2-2.2-0.6
			L57.2,48.7z M56.5,47l2.3-1c1.1-0.5,1.4-1.1,1-1.8c-0.3-0.7-1-0.9-2-0.5l-2.3,1L56.5,47z"/>
		<path class="st3" d="M74,40c1.1,2.5,0.4,5.5-2.9,7c-3.1,1.4-5.8,0-7-2.6c-1.1-2.5-0.2-5.6,2.9-6.9C70.2,36,72.9,37.5,74,40z
			 M66.4,43.3c0.8,1.7,2.2,2.7,4,1.9c1.8-0.8,1.9-2.7,1.2-4.2c-0.7-1.6-2.1-2.7-4-1.9C65.9,39.9,65.7,41.7,66.4,43.3z"/>
	</g>
</g>
<path class="st4" d="M71.9,25.4L44.5,37.4c-4.9-2.6-9.5-4.5-11.3-3.7c-4.6,2,13.4,43.2,18.2,41.2c1.6-0.7,3.3-5.4,4.7-10.8L83.7,52
	L71.9,25.4z"/>
</svg>
