<?xml version="1.0" encoding="utf-8"?>
<!-- Generator: Adobe Illustrator 24.3.0, SVG Export Plug-In . SVG Version: 6.00 Build 0)  -->
<svg version="1.1" id="Layer_1" xmlns="http://www.w3.org/2000/svg" xmlns:xlink="http://www.w3.org/1999/xlink" x="0px" y="0px"
	 viewBox="0 0 100.1 100.1" style="enable-background:new 0 0 100.1 100.1;" xml:space="preserve">
<style type="text/css">
	.st0{fill:#00679B;}
</style>
<g>
	<rect x="31.6" y="21.9" class="st0" width="62.3" height="6.9"/>
	<rect x="6.8" y="21.9" class="st0" width="10" height="6.9"/>
</g>
<path class="st0" d="M25.4,37.8H23c-1.6,0-3-1.4-3-3V15.9c0-1.6,1.4-3,3-3h2.4c1.6,0,3,1.4,3,3v18.9C28.4,36.5,27,37.8,25.4,37.8z"
	/>
<g>
	<rect x="6.8" y="46.9" class="st0" width="60" height="6.9"/>
	<rect x="81.6" y="46.9" class="st0" width="12.3" height="6.9"/>
</g>
<path class="st0" d="M75.4,62.8H73c-1.7,0-3-1.4-3-3V40.9c0-1.7,1.3-3,3-3h2.4c1.6,0,3,1.3,3,3v18.9C78.4,61.5,77,62.8,75.4,62.8z"
	/>
<g>
	<rect x="6.8" y="71.9" class="st0" width="30" height="6.9"/>
	<rect x="51.6" y="71.9" class="st0" width="42.3" height="6.9"/>
</g>
<path class="st0" d="M45.4,87.8H43c-1.7,0-3-1.3-3-3V65.9c0-1.7,1.3-3,3-3h2.4c1.7,0,3,1.4,3,3v18.9C48.4,86.5,47,87.8,45.4,87.8z"
	/>
</svg>
