<?xml version="1.0" encoding="utf-8"?>
<!-- Generator: Adobe Illustrator 24.3.0, SVG Export Plug-In . SVG Version: 6.00 Build 0)  -->
<svg version="1.1" id="Layer_1" xmlns="http://www.w3.org/2000/svg" xmlns:xlink="http://www.w3.org/1999/xlink" x="0px" y="0px"
	 viewBox="0 0 50 50" style="enable-background:new 0 0 50 50;" xml:space="preserve">
<style type="text/css">
	.st0{display:none;}
	.st1{fill:#FFFFFF;}
</style>
<rect x="-3.9" y="-4.2" class="st0" width="56.7" height="59.6"/>
<path class="st1" d="M47.2,20l-2.9-0.4c-0.4-1.3-0.9-2.6-1.6-3.9l1.6-2.4c1.3-1.8,1.2-3.1,0-4.2l-3-3c-1.2-1.2-2.7-1.4-4.1-0.3
	l-2.5,1.9c-1.3-0.7-2.6-1.2-3.9-1.6l-0.5-2.7c-0.4-2.2-1.3-3-3-3H23c-1.6,0-2.9,0.9-3.1,2.7l-0.4,3c-1.3,0.4-2.6,0.9-3.9,1.6l-2-1.4
	c-1.8-1.3-3.1-1.2-4.2,0l-3,3C5.1,10.5,4.9,12,6,13.4l1.7,2.2c-0.7,1.3-1.3,2.6-1.7,4l-2.7,0.5c-2.2,0.4-3,1.3-3,3v4.3
	c0,1.6,0.9,2.9,2.7,3.1l3,0.4c0.4,1.3,1,2.7,1.6,3.9L6,37.1c-1.3,1.8-1.2,3.1,0,4.2l3,3c1.2,1.2,2.7,1.4,4.1,0.3l2.4-1.9
	c1.3,0.7,2.6,1.2,3.9,1.6L20,47c0.4,2.2,1.3,3,3,3h4.3c1.6,0,2.9-0.9,3.1-2.7l0.4-2.9c1.4-0.4,2.7-1,4-1.7l2.2,1.6
	c1.8,1.3,3.1,1.2,4.2,0l3-3c1.2-1.2,1.4-2.7,0.3-4.1l-1.8-2.4c0.7-1.3,1.2-2.6,1.6-3.9l2.6-0.5c2.2-0.4,3-1.3,3-3v-4.3
	C49.9,21.5,49,20.2,47.2,20z M33.6,33.7c-4.6,4.6-12.2,4.6-16.8,0c-4.6-4.6-4.6-12.2,0-16.8c4.6-4.6,12.2-4.6,16.8,0
	C38.2,21.5,38.2,29,33.6,33.7z"/>
</svg>
